<svg xmlns="http://www.w3.org/2000/svg" xmlns:xlink="http://www.w3.org/1999/xlink" width="537.754" height="420.771" viewBox="0 0 537.754 420.771"><defs><style>.a{fill:#f6f6f6;}.b{fill:#f1f7ff;}.c{fill:url(#a);}.d{fill:#efb7b9;}.e,.h,.n,.o{opacity:0.1;}.f{fill:#dce6f2;}.g{fill:#965d7b;}.i{fill:#444053;}.j{fill:#a36468;}.k{fill:#6a8db4;}.l{fill:#7ca0c9;}.m{fill:#d0deee;}.n{fill:#fff;}.o{fill:#6c63ff;}</style><linearGradient id="a" y1="0.5" x2="1" y2="0.5" gradientUnits="objectBoundingBox"><stop offset="0" stop-color="gray" stop-opacity="0.251"/><stop offset="0.54" stop-color="gray" stop-opacity="0.122"/><stop offset="1" stop-color="gray" stop-opacity="0.102"/></linearGradient></defs><g transform="translate(-170 -369)"><path class="a" d="M407.666,114.371c-34.474-1.193-67.308-12.326-98.661-24.5S246.6,64.2,212.948,57.754c-21.642-4.15-46.4-4.741-63.83,6.85C132.334,75.79,126.911,95.046,124,112.928c-2.195,13.455-3.484,27.619,2.525,40.217,4.176,8.746,11.58,16.1,16.7,24.476,17.828,29.148,5.225,65.092-14.089,93.553-9.055,13.349-19.576,26.1-26.57,40.3s-10.227,30.517-4.107,45.037c6.062,14.382,20.513,25.163,36.168,32.754,31.8,15.421,69.247,19.831,105.794,22.335,80.875,5.529,162.177,3.137,243.265.735,30.011-.884,60.149-1.784,89.67-6.424,16.4-2.578,33.319-6.669,45.224-16.545,15.106-12.534,18.851-33.755,8.725-49.469-16.982-26.367-63.92-32.914-75.8-61.2-6.531-15.575.176-32.919,9.673-47.36,20.369-30.985,54.508-58.168,56.3-93.58,1.236-24.322-15.176-48.681-40.552-60.192-26.6-12.065-63.484-10.547-83.1,9.423C473.616,107.521,438.108,115.431,407.666,114.371Z" transform="translate(74.774 313.967)"/><ellipse class="b" cx="93.803" cy="17.77" rx="93.803" ry="17.77" transform="translate(264.833 746.081)"/><path class="c" d="M484.421,292.635l-16.316-11h0l8.23-12.251-43.093-3.436-15.485,11.974-19.384-10.867L382.207,269l-.192-4.261a120.262,120.262,0,0,0-1.337-13.263c.069-1.332.117-2.86.112-4.522,0-7-.948-16.289-5.114-22.479l.959-8.619-7.777-9.189a58.8,58.8,0,0,1,4.261-7.17c.266-.383.533-.756.82-1.119A19.341,19.341,0,0,0,392,179.2a12.275,12.275,0,0,0-.053-1.4,5.066,5.066,0,0,0-.059-.565c.985.533,1.982,1.065,2.978,1.6.186.266.4.533.634.847h0l.048.059.3.368.1.112c.107.128.218.25.33.378l.075.085c.282.314.581.634.9.948a.953.953,0,0,1,.107.1l.4.373.112.1c.341.3.7.6,1.065.874l.117.085.458.314.149.1c.176.107.357.218.533.32l.064.037c.208.112.421.218.634.32l.107.043q.272.117.533.224l.165.059c.186.064.367.122.559.176l.117.032c.234.059.469.107.708.144h.027a5.788,5.788,0,0,0,.682.069h.155a5.859,5.859,0,0,0,.613,0h.133a6.3,6.3,0,0,0,.762-.091,8.4,8.4,0,0,0,3.356-1.2,2.93,2.93,0,0,0,.682-.634,2.511,2.511,0,0,0-.107-2.924h0c-.415-.991-3.111-1.689-3.111-1.689s-8.523-3.558-8.523-6.392-2.131-17.536-24.125-20.9c0,0-14.308-.8-18.329,6.855l-.085.895c-1.183.74-2.163,2.227-3.329,2.663a5.439,5.439,0,0,0-1.444.533v-.1h0a1.374,1.374,0,0,0-.325.421,4.26,4.26,0,0,0-.442,1.6,6.021,6.021,0,0,1-.7,1.934,4.307,4.307,0,0,1-.32.49h0l-.091.144a3.888,3.888,0,0,0,1.811-.293,9.019,9.019,0,0,1-.533,2.131,1.769,1.769,0,0,0,1.641-.98v-.043l.069-.1a4.5,4.5,0,0,0,.33-.772l-.059.064c.107-.346.2-.7.32-1.039a1.628,1.628,0,0,1,.261-.533,1.289,1.289,0,0,1,1.1-.368l-.218,4.618h.1a6.3,6.3,0,0,1-.469.969c-.756,1.225-2.131,2.061-2.637,3.4a5.007,5.007,0,0,0-.245,2.013c0,.4.048.8.08,1.2v-.032a4.492,4.492,0,0,1-.479,2.935c-.394.586-1.028,1.028-1.246,1.694a1.652,1.652,0,0,0-.08.575,6.459,6.459,0,0,0,.362,1.71.074.074,0,0,0,0-.032,2.6,2.6,0,0,1,.091,1.257c-.24,1.065-1.534,1.955-1.47,2.972a1.145,1.145,0,0,0,.059.394,2.158,2.158,0,0,0,1.2,1.065,4.688,4.688,0,0,0,2.706.6,3.557,3.557,0,0,0,1.012-.346c-.373.858-.756,1.7-1.145,2.509-.059.128-.122.256-.186.384,0,0-3.292-2.2-5.162,2.285a9.951,9.951,0,0,0-1.156,3,7.16,7.16,0,0,1-.394,1.236,7.953,7.953,0,0,1-3.558,3.2c-3.814,1.747-19.219,20.961-19.49,25.936a29.024,29.024,0,0,1-.98,5.742,34.17,34.17,0,0,0-.916,13.578,25.984,25.984,0,0,0,.943,4.331c1.635,4.97,2.727,14.244,2.727,14.244l1.769,16.1a45.8,45.8,0,0,0,.288,6.653c-1.806,2.061-9.055,10.653-6.286,12.992,2.131,1.843,5.859,1.539,7.953,1.161-1.763,4.363-4.538,11.948-4.906,17.157-.533,7.708.911,17.919,3.2,21.84s9.9,13.977,9.9,13.977-.357,13.8,2.365,18.809,3.819,15.41,3.819,15.41,2.541,8.778,1.268,12.006,2.36,5.913-1.454,8.059-8.693,50.529-8.693,50.529-1.966,31.71,0,33.324a2,2,0,0,0,.336.2v10.653s-1.364,2.237,4.181,2.69c3.8.3,14.563.991,20.95,1.39l4.949.309s11.719,2.333,16.9,0,14.355-2.28,12.992-8.443a17.534,17.534,0,0,0-.724-2.466c-1.5-3.825-4.038-4.261-8.72-5.327-.272-.059-.533-.112-.772-.154-4.933-.858-6.552,1.438-9.316-1.55-2.4-2.583-10.051-5.476-12.656-6.392.064-.192.144-.378.208-.575a3.9,3.9,0,0,1-1.976-.964l7.058.447,4.2.261s9.961,1.987,14.382,0,12.2-1.934,11.037-7.17a15.021,15.021,0,0,0-.613-2.1c-1.273-3.249-3.436-3.606-7.415-4.506-.229-.048-.442-.1-.655-.133-4.192-.73-5.566,1.22-7.915-1.316-2.013-2.163-8.368-4.586-10.653-5.412,0-1.183-1.6-2.866-2.6-4.554-1.182-1.971,1-8.869,1-8.869l1.246-28.62a5.53,5.53,0,0,1,1.491-.426s5.636-5.38,4.363-11.111a36.834,36.834,0,0,1-.4-5.236c1.854-1.721,4.405-4.261,5.13-5.827,1.183-2.552,0-14.915,0-14.915V336.735l9.428.953,8.555.879,2.6.266,8.555.863,19.661,1.987,17.717-3.356,7.665-1.449,15.762-2.983V295.331ZM354.657,164.842l-1.1-.117C353.922,164.741,354.306,164.81,354.657,164.842Z" transform="translate(-29.377 269.051)"/><path class="d" d="M522.314,446.849c-5.327,7.622-24.476,3.585-24.476,3.585L483,436.547l-2-1.88,3.351-7.116s1.065.293,2.892.815C496.836,431.151,526.81,440.441,522.314,446.849Z" transform="translate(-105.51 139.879)"/><path class="e" d="M487.232,428.365A31.25,31.25,0,0,1,483,436.547l-2-1.88,3.351-7.116S485.426,427.843,487.232,428.365Z" transform="translate(-105.51 139.879)"/><path class="f" d="M385.717,278.224s-13.679,6.067-13.008,20.966a245.636,245.636,0,0,0,3.132,28.636s-2.8,22.42,8.848,28.2,22.42,10.531,22.42,10.531,18.217,1.96,20.481,2.77,9.338-11.57,8.033-13.5-18.026-5.971-20.156-9.189-7.058-5.2-7.058-5.2-5.087-3.079-5.433-5.859,1-4.853,1.337-6.072,1.2-13,1.2-13S411.258,274.585,385.717,278.224Z" transform="translate(-54.891 209.768)"/><path class="e" d="M399.121,370.39s-18.766,3.143-16.95,9.711A39.784,39.784,0,0,1,399.121,370.39Z" transform="translate(-59.266 166.591)"/><path class="e" d="M406.859,375.38s-10.318,8.422-8.3,8.853S406.859,375.38,406.859,375.38Z" transform="translate(-66.861 164.259)"/><path class="e" d="M422.261,380.89s-2.764,5.662-1.065,5.279S422.261,380.89,422.261,380.89Z" transform="translate(-77.303 161.684)"/><path class="e" d="M437.909,359.6l-1.14-.325a3.257,3.257,0,0,0,.149-2.328c-1.305-1.928-18.015-5.966-20.14-9.189s-7.058-5.2-7.058-5.2-5.087-3.079-5.433-5.859,1-4.853,1.337-6.072,1.2-13,1.2-13,5.726-41.916-19.815-38.278c0,0-13.679,6.072-13.013,20.971a244.95,244.95,0,0,0,3.137,28.636s-2.8,22.42,8.848,28.2,22.42,10.531,22.42,10.531,18.212,1.955,20.481,2.77c.858.309,2.408-1.284,3.926-3.473l.863.8,14.84,13.881s19.15,4.043,24.476-3.58C477.492,371.671,447.524,362.382,437.909,359.6Z" transform="translate(-55.494 209.244)"/><path class="g" d="M379.557,170.752a4.528,4.528,0,0,0-1.475.57c-.533.442-.533,1.2-.666,1.859a6.115,6.115,0,0,1-1.065,2.546,3.83,3.83,0,0,0,1.774-.293,9.127,9.127,0,0,1-.533,2.131,1.726,1.726,0,0,0,1.6-.975,10.254,10.254,0,0,0,.666-1.87,1.54,1.54,0,0,1,.256-.533c.49-.581,1.4-.32,2.157-.245a3.542,3.542,0,0,0,3.239-1.555c.8-1.22.852-4.341-1.065-4.672C382.438,167.386,381.192,170.145,379.557,170.752Z" transform="translate(-56.604 261.319)"/><g class="h" transform="translate(319.826 432.503)"><path d="M378.762,175.044c.048-.261.08-.533.138-.794h0a3.125,3.125,0,0,0-.666,1.859,5.858,5.858,0,0,1-.314,1.124A6.105,6.105,0,0,0,378.762,175.044Z" transform="translate(-377.164 -174.25)"/><path d="M378.268,182.131A8.858,8.858,0,0,0,378.8,180a3.814,3.814,0,0,1-1.689.293,6.17,6.17,0,0,1-.613,1.065,3.792,3.792,0,0,0,1.768-.288,8.856,8.856,0,0,1-.533,2.131,1.731,1.731,0,0,0,1.6-.975,3.976,3.976,0,0,0,.32-.762A1.6,1.6,0,0,1,378.268,182.131Z" transform="translate(-376.5 -176.937)"/><path d="M386.366,176.055c-.756-.075-1.673-.336-2.163.245a1.646,1.646,0,0,0-.256.533c-.048.138-.091.282-.128.426.506-.4,1.326-.186,2.013-.117a3.558,3.558,0,0,0,3.239-1.555,2.953,2.953,0,0,0,.357-.836,3.548,3.548,0,0,1-3.063,1.305Z" transform="translate(-379.921 -174.484)"/></g><path class="f" d="M314.824,201l8.123,9.769-1.06,9.86-9.817-15.368Z" transform="translate(24.163 275.065)"/><path class="e" d="M322.942,210.769l-1,9.274-.064.586-8.858-13.871-.953-1.5.277-.431,2.472-3.83.549.66Z" transform="translate(24.163 275.065)"/><path class="d" d="M406.109,218.605c-2.749.788-5.375,3.494-7.66,6.781a57.884,57.884,0,0,0-4.134,7.106c-.751,1.5-1.412,2.946-1.96,4.2l-.384.895c-.927,2.189-1.443,3.654-1.443,3.654s-21.04-15.82-17.711-16.886c1.119-.357,2.589-2.754,4.043-5.774l.181-.384c.921-1.939,1.827-4.1,2.631-6.136,1.646-4.181,2.866-7.814,2.866-7.814S414.5,216.208,406.109,218.605Z" transform="translate(-54.785 244.233)"/><path class="i" d="M459.26,202.58s4.858,8.789,11.383,7.591,3.841-4.719,3.841-4.719Z" transform="translate(-95.35 245.014)"/><path class="j" d="M407.26,755.532c-4.3,1.966-14.036,0-14.036,0l-4.1-.256c-5.327-.341-14.244-.916-17.4-1.172-4.6-.378-3.473-2.264-3.473-2.264V740.447l22.33-5.657s8.826,3.02,11.245,5.657c2.3,2.514,3.638.581,7.734,1.3.2.037.415.08.639.133,3.889.89,6,1.241,7.244,4.464a14.96,14.96,0,0,1,.6,2.077C419.2,753.615,411.559,753.577,407.26,755.532Z" transform="translate(-52.762 -3.704)"/><path class="e" d="M417.445,752.457a16.7,16.7,0,0,1-2.514,1.289c-2.93,1.337-5.716,2.967-8.677,4.229a20.3,20.3,0,0,1-9.359,1.923c-1.678-.122-3.393-.533-5-.053a11.543,11.543,0,0,0-2.775,1.539c-5.327-.341-14.244-.916-17.4-1.172-4.6-.378-3.473-2.264-3.473-2.264v-1.332c.165,0,.352-.048.565-.064a10.052,10.052,0,0,1,3.249.485c2.312.629,4.613,1.246,6.925,1.864a5.47,5.47,0,0,1,2.663-3.4,8.49,8.49,0,0,1,4.293-.985c3.585.048,6.978,1.747,10.558,1.917a5.817,5.817,0,0,0,2.924-.49c.49-.245.922-.6,1.4-.874a10.23,10.23,0,0,1,2.413-.815,53.122,53.122,0,0,0,6.9-2.226c.639-.25,1.385-.7,1.3-1.385-.112-.905-1.534-1.012-1.907-1.843a1.066,1.066,0,0,1,.043-.943c.2.037.415.08.639.133C414.089,748.883,416.2,749.234,417.445,752.457Z" transform="translate(-52.762 -9.812)"/><path class="j" d="M392.663,799.112c-5.06,2.312-16.513,0-16.513,0l-4.821-.282c-6.243-.4-16.758-1.065-20.471-1.38-5.417-.447-4.086-2.663-4.086-2.663V781.358L373.05,774.7s10.387,3.553,13.232,6.658c2.7,2.956,4.261.682,9.1,1.534.24.043.49.1.751.155,4.576,1.065,7.058,1.465,8.523,5.257a17.08,17.08,0,0,1,.708,2.445C406.688,796.854,397.723,796.806,392.663,799.112Z" transform="translate(-42.714 -22.355)"/><path class="e" d="M404.648,795.515a19.836,19.836,0,0,1-2.956,1.518c-3.446,1.571-6.728,3.489-10.211,4.975a23.936,23.936,0,0,1-11.016,2.264c-1.971-.144-3.99-.639-5.859-.064a13.58,13.58,0,0,0-3.276,1.832c-6.243-.4-16.758-1.065-20.471-1.38-5.417-.447-4.086-2.663-4.086-2.663v-1.566a6.676,6.676,0,0,1,.666-.075,11.691,11.691,0,0,1,3.825.57l8.144,2.195a6.445,6.445,0,0,1,3.159-4,9.942,9.942,0,0,1,5.055-1.161c4.219.059,8.208,2.056,12.422,2.259a6.876,6.876,0,0,0,3.43-.57c.581-.293,1.065-.714,1.651-1.028a11.579,11.579,0,0,1,2.839-.959,63.776,63.776,0,0,0,8.075-2.621c.751-.3,1.63-.831,1.529-1.63-.133-1.065-1.806-1.193-2.248-2.173a1.283,1.283,0,0,1,.053-1.108c.24.043.49.1.751.154C400.7,791.307,403.183,791.723,404.648,795.515Z" transform="translate(-42.714 -29.566)"/><path class="i" d="M396.236,647.54l-1.422,33.468s-2.131,6.834-.975,8.789,3.105,3.9,2.4,5.061-9.231,13.652-11.985,8.858-5.471-25.568-5.471-25.568l2.541-25.659Z" transform="translate(-57.739 37.071)"/><path class="i" d="M416.12,491l3.952,5.284v45.959s1.156,12.251,0,14.782-7.015,7.591-7.015,7.591l-4.927-25.3,1.065-26.767Z" transform="translate(-71.455 110.226)"/><path class="e" d="M396.236,647.54l-1.422,33.468s-2.131,6.834-.975,8.789,3.105,3.9,2.4,5.061-9.231,13.652-11.985,8.858-5.471-25.568-5.471-25.568l2.541-25.659Z" transform="translate(-57.739 37.071)"/><path class="e" d="M416.12,491l3.952,5.284v45.959s1.156,12.251,0,14.782-7.015,7.591-7.015,7.591l-4.927-25.3,1.065-26.767Z" transform="translate(-71.455 110.226)"/><path class="i" d="M382.158,442.984v24.86L377.721,487.2s-1.422,46.7-.181,52.377-4.261,11.01-4.261,11.01-3.2.357-3.2,2.839-5.327,9.588-5.327,9.588l.176,13.849s2.312,25.925-1.241,30.895,1.241,5.684,1.241,5.684c-4.437,14.558-25.744,11.186-27.667,9.588s0-33.025,0-33.025,4.762-47.94,8.491-50.071.181-4.794,1.422-7.99-1.241-11.895-1.241-11.895-1.065-10.3-3.729-15.272S339.9,486.13,339.9,486.13s-7.457-9.945-9.673-13.849-3.644-14.025-3.111-21.664c.362-5.162,3.073-12.678,4.794-17,.826-2.072,1.422-3.414,1.422-3.414l.506.133,29.094,7.617Z" transform="translate(-33.541 138.64)"/><path class="e" d="M412.432,218.573c-2.749.788-5.375,3.494-7.66,6.781h-.6a19.027,19.027,0,0,1-16.513-9.551,18.738,18.738,0,0,1-1.673-3.809c1.646-4.181,2.866-7.814,2.866-7.814S420.821,216.176,412.432,218.573Z" transform="translate(-61.109 244.266)"/><path class="d" d="M422.466,189.48a19.043,19.043,0,1,1-35.625-9.332,18.609,18.609,0,0,1,2.014-2.908,19.272,19.272,0,0,1,4.379-3.846,19.043,19.043,0,0,1,29.206,14.691C422.45,188.554,422.466,189.017,422.466,189.48Z" transform="translate(-60.356 260.042)"/><path class="e" d="M400.894,263.114l-.064.586-8.858-13.849c-.927,2.189-1.443,3.654-1.443,3.654s-21.04-15.842-17.711-16.907c1.119-.357,2.589-2.754,4.043-5.774l.181-.384c1.545,4.6,10.52,13.8,14.254,17.488.432.426.788.778,1.065,1.033l.57.533.3.3C394.587,251.193,400.318,257.372,400.894,263.114Z" transform="translate(-54.785 231.994)"/><path class="f" d="M383.226,309.97l-.969,31.2-.17,5.556s-11.484-1.065-22.2-2.237c-8.629-.943-16.763-1.96-18.015-2.557a33.912,33.912,0,0,0-7.724-1.7c-2.088-.282-3.729-.431-3.729-.431s-.613.181-1.555.352c-2.056.373-5.668.677-7.772-1.151-2.69-2.338,4.379-10.834,6.142-12.875l.389-.442-.666-6.152-1.731-15.954s-1.065-9.189-2.663-14.116a26.029,26.029,0,0,1-.922-4.288,34.347,34.347,0,0,1,.895-13.455,29.334,29.334,0,0,0,.959-5.694c.266-4.927,15.314-23.97,19.043-25.7a7.9,7.9,0,0,0,3.814-3.8,7.263,7.263,0,0,0,.581-1.657c1.6-6.925,5.641-4.176,5.641-4.176.975,5.417,16.065,19.757,16.065,19.757l.3.3c1.5,1.534,8.166,8.736,7.692,14.883a18.043,18.043,0,0,0,1.007,6.733,113.857,113.857,0,0,1,5.247,29.829Z" transform="translate(-30.497 232.13)"/><path class="e" d="M391.993,310.45s-3.729,9.055-6.525,10.52S393.325,324.06,391.993,310.45Z" transform="translate(-60.645 194.603)"/><path class="e" d="M395.9,342.2s-8.523,1.065-8.523,2.663S395.9,342.2,395.9,342.2Z" transform="translate(-61.758 179.765)"/><path class="e" d="M405.862,361.7s-12.385,26.367-15.847,27.166S405.862,361.7,405.862,361.7Z" transform="translate(-62.796 170.652)"/><path class="e" d="M390.607,252.693l-10.243,4.453L368,238.47a7.268,7.268,0,0,0,.581-1.657c1.6-6.925,5.641-4.176,5.641-4.176.975,5.417,16.065,19.757,16.065,19.757Z" transform="translate(-52.701 231.218)"/><path class="f" d="M391.607,250.693l-10.243,4.453L369,236.471a7.267,7.267,0,0,0,.581-1.657c1.6-6.925,5.641-4.176,5.641-4.176.975,5.417,16.065,19.757,16.065,19.757Z" transform="translate(-53.169 232.153)"/><path class="e" d="M386.942,375.551s-11.484-1.065-22.2-2.237l19.229,5.034v5.859c-.842.762-1.571,1.156-2.045.954-2.216-.932-20.3-3.862-20.3-3.862s-10.5-5.327-21.84-11.719a8.765,8.765,0,0,1-.8-.5,12.593,12.593,0,0,1-3.356-3.361,23.855,23.855,0,0,1-3.558-10.744,46.458,46.458,0,0,1-.277-6.594,54.067,54.067,0,0,1,.682-7.452,245.061,245.061,0,0,1-1.6-28.764c.133-14.915,14.116-20.241,14.116-20.241,25.7-2.264,17.733,39.284,17.733,39.284s-1.486,11.719-1.891,12.917-1.859,3.2-1.662,5.993,5.108,6.142,5.108,6.142,4.794,2.248,6.77,5.577c1.438,2.456,10.781,5.785,16.06,8.16Z" transform="translate(-35.353 203.303)"/><path class="e" d="M420.521,175.481a6.03,6.03,0,0,1-.533,2.546,15.74,15.74,0,0,1-.948,1.9,8.737,8.737,0,0,1-2.333,2.9,11.935,11.935,0,0,1-4.261,1.481,6.167,6.167,0,0,0-3.851,2.184,7.637,7.637,0,0,0-.9,2.61,5.614,5.614,0,0,1-1.065,2.525,2.093,2.093,0,0,1-2.493.6,2.52,2.52,0,0,1-.964-1.241,17.8,17.8,0,0,1-1.007-4.363,9.281,9.281,0,0,0-1.5-4.181,3.744,3.744,0,0,0-3.931-1.507,3.787,3.787,0,0,0-2.131,2.067,11.846,11.846,0,0,0-.8,2.94q-.991,5.423-2.339,10.781a.99.99,0,0,1-.176.4.767.767,0,0,1-.533.224c-1.193.16-2.338-.677-3.542-.586a2.036,2.036,0,0,0-.368.059,19.032,19.032,0,0,1,1.923-21.733l.1-.027a5.742,5.742,0,0,0,2.131-1.342,22.486,22.486,0,0,0,2.131-2.466l.426-.533a24.3,24.3,0,0,1,4.155-3.947,4.26,4.26,0,0,1,1.417-.767,4.2,4.2,0,0,1,1.342-.043,33.862,33.862,0,0,0,5.545.208,35.579,35.579,0,0,1,3.894-.394c3.372.1,6.248,2.477,8.379,5.087A7.88,7.88,0,0,1,420.521,175.481Z" transform="translate(-60.323 262.216)"/><path class="g" d="M379.508,178.026c-.74,1.214-2.077,2.04-2.578,3.372-.735,1.934.506,4.341-.634,6.067-.378.581-1,1.012-1.214,1.678-.362,1.124.629,2.322.373,3.478s-1.779,2.131-1.374,3.26a2.13,2.13,0,0,0,1.172,1.065,4.581,4.581,0,0,0,2.663.591c1.454-.24,2.536-1.667,4.011-1.774,1.2-.085,2.344.746,3.537.591a.8.8,0,0,0,.533-.229.921.921,0,0,0,.176-.4q1.342-5.353,2.344-10.781a11.612,11.612,0,0,1,.8-2.94,3.819,3.819,0,0,1,2.131-2.067,3.757,3.757,0,0,1,3.931,1.507,9.224,9.224,0,0,1,1.5,4.181,18.041,18.041,0,0,0,1,4.363,2.546,2.546,0,0,0,.969,1.246,2.086,2.086,0,0,0,2.488-.6,5.557,5.557,0,0,0,1.065-2.53,7.607,7.607,0,0,1,.9-2.6,6.18,6.18,0,0,1,3.851-2.184,12.052,12.052,0,0,0,4.261-1.486,8.767,8.767,0,0,0,2.333-2.892,8.515,8.515,0,0,0,1.46-4.448,8.165,8.165,0,0,0-2.184-4.608c-2.131-2.61-5.012-4.991-8.384-5.082a33.129,33.129,0,0,0-3.894.394,33.333,33.333,0,0,1-5.545-.213,4.357,4.357,0,0,0-1.342.048,4.016,4.016,0,0,0-1.412.767,24.3,24.3,0,0,0-4.16,3.942,30.538,30.538,0,0,1-2.567,2.983,5.78,5.78,0,0,1-2.131,1.348c-.533.149-1.065.043-1.571.208C380.446,174.772,380.238,176.822,379.508,178.026Z" transform="translate(-55.511 262.669)"/><path class="e" d="M470.643,210.165c-4.261.783-7.793-2.663-9.748-5.178a20.9,20.9,0,0,1-1.635-2.408l14.627,2.759.591.112S477.168,208.972,470.643,210.165Z" transform="translate(-95.35 245.014)"/><g class="h" transform="translate(318.475 436.631)"><path d="M376.322,212.375a4.436,4.436,0,0,0-.309-2.045c0,.053-.048.107-.064.16a3.965,3.965,0,0,0,.277,2.195A1.6,1.6,0,0,0,376.322,212.375Z" transform="translate(-374.854 -195.239)"/><path d="M379.071,197.8a11.832,11.832,0,0,0,.043,2.211A11.873,11.873,0,0,0,379.071,197.8Z" transform="translate(-376.335 -189.384)"/><path d="M413.694,185.436a8.736,8.736,0,0,1-2.333,2.9,11.9,11.9,0,0,1-4.261,1.481A6.152,6.152,0,0,0,403.248,192a7.675,7.675,0,0,0-.9,2.61,5.576,5.576,0,0,1-1.065,2.53,2.079,2.079,0,0,1-2.488.6,2.546,2.546,0,0,1-.969-1.246,17.735,17.735,0,0,1-1-4.363,9.2,9.2,0,0,0-1.5-4.181,3.744,3.744,0,0,0-3.931-1.507,3.8,3.8,0,0,0-2.131,2.067,11.611,11.611,0,0,0-.8,2.94q-1,5.428-2.344,10.781a.921.921,0,0,1-.176.4.8.8,0,0,1-.533.229c-1.193.154-2.338-.677-3.537-.591-1.475.107-2.557,1.534-4.011,1.768a4.5,4.5,0,0,1-2.663-.591,2.851,2.851,0,0,1-.975-.692,1.438,1.438,0,0,0-.2,1.241,2.077,2.077,0,0,0,1.172,1.065,4.5,4.5,0,0,0,2.663.591c1.454-.234,2.536-1.662,4.011-1.768,1.2-.085,2.344.746,3.537.591a.8.8,0,0,0,.533-.229.921.921,0,0,0,.176-.4q1.342-5.327,2.344-10.781a11.612,11.612,0,0,1,.8-2.94,3.8,3.8,0,0,1,2.131-2.067,3.748,3.748,0,0,1,3.931,1.507,9.225,9.225,0,0,1,1.5,4.181,18.038,18.038,0,0,0,1,4.363,2.546,2.546,0,0,0,.97,1.246,2.086,2.086,0,0,0,2.488-.6,5.577,5.577,0,0,0,1.065-2.53,7.675,7.675,0,0,1,.9-2.61,6.2,6.2,0,0,1,3.851-2.184,12.15,12.15,0,0,0,4.261-1.481,8.735,8.735,0,0,0,2.333-2.9,8.482,8.482,0,0,0,1.46-4.442,5.716,5.716,0,0,0-.064-.607A10.468,10.468,0,0,1,413.694,185.436Z" transform="translate(-373.964 -182)"/></g><path class="e" d="M422.187,180.189a18.819,18.819,0,0,1,2.37,7.91c-4.746-2.663-9.21-5.588-11.463-6.605-3.926-1.774-18.606-1.507-24.125-1.342a18.6,18.6,0,0,1,2.014-2.908,19.27,19.27,0,0,1,4.394-3.846,19.054,19.054,0,0,1,26.836,6.781Z" transform="translate(-62.501 260.038)"/><path class="e" d="M471.975,207.907c-2.562.788-6.744-.735-11.08-2.919a20.9,20.9,0,0,1-1.635-2.408l14.627,2.759C474.857,206,475.1,206.943,471.975,207.907Z" transform="translate(-95.35 245.014)"/><path class="i" d="M404.866,154.059s-13.983-.8-17.914,6.792l-.634,6.728-1.065-.117-.213,4.576s21.371-.932,26.234,1.262,19.975,13.253,26.032,11.388-.533-3.6-.533-3.6-8.336-3.532-8.336-6.3S426.37,157.388,404.866,154.059Z" transform="translate(-60.665 267.7)"/><path class="e" d="M371.63,622.28s8.922,8.656,12.784,7.99C384.414,630.27,373.494,629.338,371.63,622.28Z" transform="translate(-54.398 48.875)"/><path class="e" d="M368.13,629.81s.8,4.453,2.93,4.016S368.13,629.81,368.13,629.81Z" transform="translate(-52.762 45.356)"/><path class="e" d="M384.928,769.53s-12.667,9.854-10.531,10.121S384.928,769.53,384.928,769.53Z" transform="translate(-55.578 -19.939)"/><path class="k" d="M330.96,341.474l41.016-6.674v38.832l-38.97-2.04Z" transform="translate(15.335 212.536)"/><path class="k" d="M407.96,334.8l49.187,3.681-2.722,33.793-46.465,1.358Z" transform="translate(-20.65 212.536)"/><path class="l" d="M423.083,312.55,407.96,324.4l49.187,3.681,8.038-12.129Z" transform="translate(-20.65 222.934)"/><path class="l" d="M303.08,319.086,340,314.59l18.942,10.765-41.016,6.674Z" transform="translate(28.364 221.981)"/><path class="l" d="M380.967,350.739V403.83l-19.213-1.971-8.358-.852-2.546-.266-8.352-.858L330.96,398.7V347.33l41.01,2.791Z" transform="translate(15.335 206.681)"/><path class="l" d="M465.035,341.71v51.776l-15.4,2.956-7.49,1.438L424.84,401.2V348.113Z" transform="translate(-28.538 209.307)"/><path class="m" d="M303.08,358.505l14.851-11.175,50.007,3.409-7.361,12.4Z" transform="translate(28.364 206.681)"/><path class="m" d="M465.035,341.71l-40.2,6.4,13.082,11.719,43.056-7.223Z" transform="translate(-28.538 209.307)"/><path class="n" d="M464.819,434.464,457.33,435.9V424.838l7.015-1.768Z" transform="translate(-43.722 171.285)"/><path class="n" d="M381.438,435.96v7.319l-8.358-.852V435.96Z" transform="translate(-4.349 165.261)"/><path class="n" d="M360.972,440.29v3.894l-8.352-.858V440.29Z" transform="translate(5.212 163.238)"/><path class="e" d="M475.015,465.007c-5.726,7.324-24.636,2.264-24.636,2.264l-14.052-14.659-1.907-1.987,3.729-6.925s1.065.352,2.844.969C450.411,447.961,479.836,458.844,475.015,465.007Z" transform="translate(-83.741 132.331)"/><path class="d" d="M474.015,463.007c-5.726,7.324-24.636,2.264-24.636,2.264l-14.052-14.659-1.907-1.987,3.729-6.925s1.065.352,2.844.97C449.411,445.961,478.836,456.844,474.015,463.007Z" transform="translate(-83.274 133.266)"/><path class="e" d="M439.953,442.669a31.5,31.5,0,0,1-4.666,7.942l-1.907-1.987,3.729-6.925S438.179,442.052,439.953,442.669Z" transform="translate(-83.256 133.266)"/><path class="f" d="M345.995,287.92s-13.983,5.327-14.116,20.241a245.076,245.076,0,0,0,1.6,28.764s-4,22.239,7.324,28.631,21.839,11.719,21.839,11.719,18.084,2.93,20.305,3.862,9.94-11.053,8.741-13.05-17.663-6.925-19.618-10.254-6.77-5.572-6.77-5.572-4.911-3.35-5.108-6.147,1.252-4.794,1.662-5.993,1.9-12.917,1.9-12.917S371.7,285.629,345.995,287.92Z" transform="translate(-35.82 205.174)"/><path class="e" d="M355,380.7s-18.91,2.131-17.445,8.789A39.782,39.782,0,0,1,355,380.7Z" transform="translate(-38.438 161.773)"/><path class="e" d="M362.48,385.7s-10.733,7.857-8.762,8.39S362.48,385.7,362.48,385.7Z" transform="translate(-45.914 159.436)"/><path class="e" d="M377.747,391.7s-3.063,5.508-1.332,5.22S377.747,391.7,377.747,391.7Z" transform="translate(-56.386 156.632)"/><path class="l" d="M733.148,167.4s-20.241-1.22-17.876,12.981a3.464,3.464,0,0,0,1.8,3.649s.037-1.065,2.077-.7a9.327,9.327,0,0,0,2.2.107,4.565,4.565,0,0,0,2.7-1.113h0s5.694-2.349,7.91-11.66c0,0,1.641-2.035,1.6-2.557l-3.42,1.465a6.128,6.128,0,0,1,.245,4.517s-.107-4.427-.767-4.325c-.133,0-1.774.858-1.774.858s2.008,4.293.49,7.42c0,0,.575-5.295-1.119-7.111l-2.408,1.406s2.349,4.437.756,8.059c0,0,.41-5.556-1.262-7.718l-2.184,1.7s2.211,4.379.863,7.383c0,0-.176-6.467-1.337-6.957a13.173,13.173,0,0,0-2.195,2.376s1.507,3.2.57,4.853c0,0-.575-4.309-1.065-4.331,0,0-1.9,2.855-2.1,4.794a10.365,10.365,0,0,1,1.635-5.082,5.706,5.706,0,0,0-2.908,1.507s.293-2.019,3.377-2.195a14.577,14.577,0,0,1,1.992-2.3,12.49,12.49,0,0,0-4.927.57s1.635-1.9,5.492-1.065l2.131-1.758s-4.038-.533-5.753.059c0,0,1.971-1.683,6.334-.458l2.344-1.4a21.043,21.043,0,0,0-5.492-.474s2.163-1.167,6.179.1l1.678-.751s-2.525-.5-3.26-.575-.778-.282-.778-.282a8.714,8.714,0,0,1,4.735.533S733.222,167.621,733.148,167.4Z" transform="translate(-214.902 261.468)"/><path class="o" d="M848.608,300.737s-20.242-1.22-17.876,12.981a3.464,3.464,0,0,0,1.8,3.649s.037-1.065,2.083-.7a9.324,9.324,0,0,0,2.2.107,4.56,4.56,0,0,0,2.664-1.108h0s5.7-2.354,7.915-11.665c0,0,1.635-2.029,1.571-2.551l-3.42,1.46a6.146,6.146,0,0,1,.25,4.517s-.112-4.426-.767-4.325c-.133,0-1.779.858-1.779.858s2.014,4.3.5,7.42c0,0,.575-5.295-1.124-7.111l-2.381,1.39s2.349,4.437.756,8.059c0,0,.41-5.556-1.262-7.718l-2.179,1.7s2.205,4.373.863,7.377c0,0-.176-6.467-1.337-6.957a13.358,13.358,0,0,0-2.2,2.376s1.513,3.2.575,4.853c0,0-.575-4.309-1.065-4.331,0,0-1.9,2.855-2.1,4.794a10.4,10.4,0,0,1,1.641-5.082,5.731,5.731,0,0,0-2.914,1.507s.3-2.019,3.382-2.195a13.3,13.3,0,0,1,1.992-2.3,12.49,12.49,0,0,0-4.927.57s1.635-1.9,5.487-1.039l2.131-1.758s-4.043-.533-5.753.059c0,0,1.971-1.683,6.333-.458l2.344-1.4a21.344,21.344,0,0,0-5.5-.474s2.168-1.167,6.184.1l1.678-.751s-2.525-.5-3.265-.575-.778-.282-.778-.282a8.731,8.731,0,0,1,4.741.533S848.672,300.961,848.608,300.737Z" transform="translate(-268.86 199.154)"/><path class="o" d="M621.489,259.525s4.661-19.757-9.742-19.826a3.46,3.46,0,0,0-3.9,1.151s1.028.218.33,2.168a9.472,9.472,0,0,0-.479,2.131,4.576,4.576,0,0,0,.634,2.839h0s1.348,6.019,10.121,9.79c0,0,1.726,1.96,2.248,1.982l-.852-3.617a6.12,6.12,0,0,1-4.5-.533s4.384.645,4.389,0c0-.133-.533-1.9-.533-1.9s-4.576,1.246-7.4-.783c0,0,5.119,1.47,7.2.112l-.959-2.621s-4.794,1.561-8.075-.629c0,0,5.407,1.353,7.825.075l-1.3-2.44s-4.688,1.428-7.42-.41c0,0,6.392.927,7.085-.128a13.236,13.236,0,0,0-1.966-2.573s-3.388.948-4.879-.261c0,0,4.341.165,4.442-.293,0,0-2.488-2.36-4.384-2.892a10.441,10.441,0,0,1,4.735,2.482,5.749,5.749,0,0,0-.991-3.127s1.939.639,1.6,3.729a13.265,13.265,0,0,1,1.923,2.354,12.528,12.528,0,0,0,.277-4.954s1.6,1.939.091,5.588l1.364,2.424s1.236-3.888.922-5.678c0,0,1.326,2.227-.628,6.318l.985,2.551a21.328,21.328,0,0,0,1.4-5.327s.783,2.333-1.15,6.078l.458,1.779s.916-2.4,1.119-3.116.41-.719.41-.719a8.725,8.725,0,0,1-1.326,4.581S621.26,259.552,621.489,259.525Z" transform="translate(-164.708 227.758)"/><path class="o" d="M530.186,285.241s-16.257-12.161-22.069,1.012a3.467,3.467,0,0,0-.5,4.038s.607-.858,2.131.565a9.329,9.329,0,0,0,1.779,1.3,4.571,4.571,0,0,0,2.861.533h0s6.051,1.167,13.018-5.391c0,0,2.488-.8,2.722-1.268l-3.67-.645a6.154,6.154,0,0,1-2.274,3.91s2.338-3.761,1.731-4.032c-.123-.059-1.955-.266-1.955-.266s-.682,4.7-3.665,6.472c0,0,3.393-4.107,2.972-6.557l-2.786-.149s-.474,5-3.8,7.154c0,0,3.393-4.416,3.2-7.143l-2.759.224s-.559,4.863-3.335,6.632c0,0,3.4-5.5,2.706-6.541a13.388,13.388,0,0,0-3.143.772s-.485,3.484-2.189,4.368c0,0,1.891-3.915,1.507-4.187,0,0-3.159,1.337-4.4,2.86a10.4,10.4,0,0,1,4.166-3.345,5.737,5.737,0,0,0-3.26-.341s1.353-1.523,4.027.027a13.452,13.452,0,0,1,2.93-.826,12.465,12.465,0,0,0-4.432-2.232s2.418-.692,5.162,2.131l2.765-.282s-3.073-2.663-4.837-3.111c0,0,2.573-.325,5.54,3.095l2.727.122a21.262,21.262,0,0,0-4.325-3.42s2.445.213,5.108,3.478l1.816.293s-1.838-1.8-2.413-2.269-.5-.666-.5-.666a8.752,8.752,0,0,1,3.67,3.047S530.117,285.459,530.186,285.241Z" transform="translate(-117.733 208.775)"/><path class="o" d="M631.8,73.129s-16.257-12.166-22.068,1.012a3.467,3.467,0,0,0-.5,4.038s.607-.858,2.131.565a9.481,9.481,0,0,0,1.784,1.294,4.565,4.565,0,0,0,2.86.533h0s6.051,1.167,13.018-5.4c0,0,2.488-.794,2.717-1.268l-3.67-.634a6.128,6.128,0,0,1-2.275,3.91s2.344-3.761,1.736-4.032c-.123-.059-1.955-.266-1.955-.266s-.7,4.709-3.686,6.472c0,0,3.388-4.107,2.972-6.557l-2.786-.149s-.479,5-3.8,7.148c0,0,3.393-4.416,3.2-7.143l-2.754.224s-.565,4.869-3.34,6.637c0,0,3.409-5.5,2.711-6.541a13.389,13.389,0,0,0-3.143.772s-.485,3.484-2.189,4.368c0,0,1.891-3.915,1.508-4.192,0,0-3.159,1.342-4.4,2.866a10.355,10.355,0,0,1,4.166-3.345,5.7,5.7,0,0,0-3.265-.341s1.358-1.523,4.032.027a13.156,13.156,0,0,1,2.93-.826,12.534,12.534,0,0,0-4.432-2.237s2.413-.687,5.156,2.131l2.765-.282s-3.068-2.663-4.837-3.116c0,0,2.573-.32,5.545,3.1l2.727.117a21.043,21.043,0,0,0-4.331-3.414s2.45.213,5.114,3.478l1.811.293s-1.843-1.779-2.418-2.237-.5-.661-.5-.661A8.736,8.736,0,0,1,628,72.521S631.705,73.331,631.8,73.129Z" transform="translate(-165.219 307.903)"/><path class="o" d="M749.8,94.762s-6.5-19.235-18.755-11.676a3.5,3.5,0,0,0-2.7,3.042s.985-.362,1.422,1.662a9.59,9.59,0,0,0,.73,2.083,4.613,4.613,0,0,0,2.046,2.072h0s4.325,4.395,13.785,2.94c0,0,2.5.756,2.956.5l-2.663-2.615a6.127,6.127,0,0,1-4.091,1.928s4.064-1.768,3.729-2.338c-.069-.112-1.46-1.321-1.46-1.321s-3.228,3.478-6.69,3.249c0,0,5.119-1.46,6.163-3.729l-2.205-1.7s-3.228,3.846-7.186,3.729c0,0,5.327-1.71,6.674-4.075l-2.4-1.38s-3.2,3.691-6.509,3.574c0,0,5.923-2.594,5.939-3.851a13.316,13.316,0,0,0-3.026-1.145s-2.376,2.594-4.261,2.36c0,0,3.771-2.157,3.612-2.6,0,0-3.356-.687-5.247-.133a10.382,10.382,0,0,1,5.327-.4,5.748,5.748,0,0,0-2.5-2.131s1.982-.485,3.308,2.306a13.412,13.412,0,0,1,2.876.98,12.518,12.518,0,0,0-2.381-4.352s2.381.8,3.031,4.7l2.44,1.332s-1.007-3.947-2.221-5.327c0,0,2.306,1.193,2.807,5.694l2.184,1.646a21.176,21.176,0,0,0-1.63-5.273s1.9,1.566,2.237,5.769l1.326,1.268s-.49-2.525-.692-3.239-.037-.762-.037-.762a8.782,8.782,0,0,1,1.294,4.592S749.609,94.9,749.8,94.762Z" transform="translate(-221.099 301.679)"/><path class="o" d="M672.665,108.217s-20.188-2.248-18.521,12.076a3.457,3.457,0,0,0,1.6,3.729s.091-1.065,2.131-.586a9.8,9.8,0,0,0,2.195.218,4.581,4.581,0,0,0,2.743-.975h0s5.811-2.061,8.523-11.25c0,0,1.736-1.944,1.7-2.472l-3.489,1.289a5.941,5.941,0,0,1,0,4.522s.112-4.426-.533-4.357c-.133,0-1.816.767-1.816.767s1.79,4.395.117,7.457c0,0,.842-5.263-.762-7.159l-2.477,1.278s2.131,4.554.346,8.091c0,0,.692-5.529-.868-7.772l-2.264,1.6s1.981,4.48.485,7.415c0,0,.154-6.467-.98-7.015a13.857,13.857,0,0,0-2.317,2.259s1.348,3.249.33,4.874c0,0-.357-4.331-.826-4.373,0,0-2.045,2.754-2.344,4.7a10.371,10.371,0,0,1,1.9-5,5.731,5.731,0,0,0-2.983,1.358s.394-2,3.484-2.019c0,0,1.678-2.083,2.131-2.195a12.523,12.523,0,0,0-4.954.32s1.731-1.822,5.534-.762l2.242-1.646s-4.054-.82-5.769-.288c0,0,2.056-1.6,6.349-.133l2.413-1.284a21.211,21.211,0,0,0-5.465-.751s2.221-1.065,6.168.41l1.715-.666s-2.5-.623-3.233-.74-.762-.32-.762-.32a8.762,8.762,0,0,1,4.709.767S672.7,108.441,672.665,108.217Z" transform="translate(-186.379 289.172)"/><path class="o" d="M1004.274,402.387s-20.178-2.248-18.51,12.06a3.457,3.457,0,0,0,1.6,3.729s.091-1.065,2.131-.591a9.214,9.214,0,0,0,2.195.218,4.543,4.543,0,0,0,2.743-.975h0s5.811-2.061,8.5-11.245c0,0,1.736-1.95,1.7-2.472l-3.489,1.284a5.955,5.955,0,0,1,0,4.528s.112-4.432-.533-4.357c-.133,0-1.816.762-1.816.762s1.79,4.395.117,7.457c0,0,.842-5.258-.762-7.159l-2.477,1.284s2.131,4.554.352,8.091c0,0,.687-5.529-.874-7.777l-2.264,1.6s1.981,4.48.485,7.409c0,0,.154-6.467-.98-7.01a14.069,14.069,0,0,0-2.317,2.259s1.353,3.249.33,4.874c0,0-.357-4.331-.826-4.373,0,0-2.046,2.754-2.344,4.7a10.37,10.37,0,0,1,1.9-5,5.685,5.685,0,0,0-2.983,1.358s.394-2,3.484-2.024c0,0,1.683-2.083,2.131-2.189a12.481,12.481,0,0,0-4.954.314s1.731-1.816,5.54-.756l2.237-1.646s-4.006-.756-5.748-.234c0,0,2.056-1.6,6.349-.139l2.413-1.278a21.211,21.211,0,0,0-5.465-.751s2.221-1.065,6.168.41l1.715-.671s-2.5-.623-3.233-.735-.762-.32-.762-.32a8.73,8.73,0,0,1,4.709.762S1004.328,402.616,1004.274,402.387Z" transform="translate(-341.355 151.698)"/><path class="o" d="M929.736,135.381s-16.257-12.161-22.069,1.012a3.466,3.466,0,0,0-.5,4.038s.607-.858,2.131.565a9.325,9.325,0,0,0,1.779,1.3,4.576,4.576,0,0,0,2.861.533h0s6.051,1.167,13.024-5.391c0,0,2.482-.8,2.717-1.268l-3.659-.661a6.154,6.154,0,0,1-2.275,3.91s2.338-3.761,1.731-4.032c-.122-.059-1.949-.266-1.949-.266s-.687,4.7-3.67,6.472c0,0,3.393-4.107,2.972-6.557l-2.786-.149s-.474,5-3.8,7.154c0,0,3.4-4.416,3.2-7.143l-2.759.224s-.533,4.863-3.335,6.632c0,0,3.409-5.5,2.706-6.541a13.39,13.39,0,0,0-3.143.772s-.479,3.484-2.184,4.368c0,0,1.886-3.915,1.5-4.187,0,0-3.159,1.337-4.4,2.86a10.4,10.4,0,0,1,4.166-3.345,5.737,5.737,0,0,0-3.26-.341s1.358-1.523,4.032.027a13.391,13.391,0,0,1,2.924-.826,12.466,12.466,0,0,0-4.432-2.232s2.418-.692,5.161,2.131l2.765-.282s-3.068-2.663-4.837-3.111c0,0,2.573-.325,5.54,3.095l2.733.122a21.351,21.351,0,0,0-4.331-3.42s2.45.213,5.108,3.478l1.817.293s-1.838-1.8-2.413-2.269-.49-.623-.49-.623a8.757,8.757,0,0,1,3.665,3.047S929.666,135.6,929.736,135.381Z" transform="translate(-304.455 278.809)"/><path class="o" d="M955.056,292.385s-5.6-19.512-18.207-12.507a3.461,3.461,0,0,0-2.839,2.914s1-.314,1.348,1.726a9.453,9.453,0,0,0,.639,2.131,4.575,4.575,0,0,0,1.95,2.173h0s4.123,4.581,13.636,3.558c0,0,2.461.863,2.93.629l-2.52-2.738a6.126,6.126,0,0,1-4.171,1.747s4.134-1.6,3.814-2.168c-.064-.117-1.4-1.39-1.4-1.39s-3.377,3.335-6.829,2.946c0,0,5.183-1.225,6.323-3.43l-2.131-1.8s-3.4,3.7-7.345,3.409c0,0,5.369-1.475,6.85-3.771l-2.333-1.486s-3.382,3.542-6.664,3.276c0,0,6.035-2.328,6.11-3.579a13.3,13.3,0,0,0-2.978-1.278s-2.488,2.482-4.379,2.163c0,0,3.867-1.987,3.729-2.434,0,0-3.324-.836-5.236-.373a10.393,10.393,0,0,1,5.327-.154,5.715,5.715,0,0,0-2.4-2.237s2-.4,3.2,2.45a13.286,13.286,0,0,1,2.828,1.108,12.455,12.455,0,0,0-2.184-4.453s2.344.906,2.818,4.826l2.376,1.444s-.831-3.995-1.981-5.4c0,0,2.248,1.294,2.551,5.811l2.131,1.742a21.122,21.122,0,0,0-1.39-5.327s1.827,1.651,1.976,5.859l1.268,1.332s-.373-2.546-.533-3.271,0-.826,0-.826a8.732,8.732,0,0,1,1.092,4.645S954.864,292.513,955.056,292.385Z" transform="translate(-317.214 209.599)"/><path class="o" d="M718.972,378.321s-10.882-17.141-20.987-6.882a3.445,3.445,0,0,0-1.907,3.6s.879-.586,1.784,1.278a9.121,9.121,0,0,0,1.2,1.843,4.549,4.549,0,0,0,2.477,1.534h0s5.247,3.239,14.089-.426c0,0,2.6.138,2.988-.218l-3.2-1.918a6.123,6.123,0,0,1-3.516,2.85s3.526-2.663,3.052-3.153c-.091-.1-1.731-.937-1.731-.937s-2.306,4.144-5.726,4.746c0,0,4.629-2.637,5.108-5.076l-2.552-1.124s-2.221,4.5-6.088,5.327c0,0,4.741-2.924,5.513-5.545l-2.663-.767s-2.248,4.352-5.471,5.018c0,0,5.135-3.931,4.853-5.156a13.231,13.231,0,0,0-3.2-.389s-1.689,3.084-3.6,3.308c0,0,3.153-2.994,2.892-3.388,0,0-3.425.133-5.13,1.119a10.366,10.366,0,0,1,5.082-1.651,5.716,5.716,0,0,0-2.924-1.475s1.806-.943,3.729,1.454a13.16,13.16,0,0,1,3.031.266,12.263,12.263,0,0,0-3.351-3.659s2.5.213,4.059,3.841l2.69.714s-1.923-3.6-3.42-4.624c0,0,2.519.607,4.08,4.863l2.514,1.065a21.232,21.232,0,0,0-2.839-4.73s2.216,1.065,3.542,5.066l1.6.922s-1.065-2.338-1.443-2.983-.229-.794-.229-.794a8.736,8.736,0,0,1,2.349,4.15S718.829,378.5,718.972,378.321Z" transform="translate(-206 167.63)"/><path class="l" d="M853.35,213.523S843,196.057,832.575,206a3.463,3.463,0,0,0-2.013,3.537s.889-.565,1.742,1.326a9.213,9.213,0,0,0,1.145,1.886,4.523,4.523,0,0,0,2.429,1.6h0s5.141,3.4,14.095,0c0,0,2.6.218,2.994-.128l-3.127-2.014a6.124,6.124,0,0,1-3.6,2.738s3.606-2.573,3.153-3.057c-.1-.1-1.7-1-1.7-1s-2.434,4.075-5.859,4.57c0,0,4.709-2.493,5.258-4.911l-2.514-1.182s-2.36,4.437-6.253,5.146c0,0,4.831-2.775,5.683-5.369l-2.631-.852s-2.386,4.261-5.625,4.847c0,0,5.252-3.771,5.007-5a13.159,13.159,0,0,0-3.2-.49s-1.784,3.031-3.7,3.2c0,0,3.244-2.887,3-3.292,0,0-3.43.027-5.161.959a10.4,10.4,0,0,1,5.13-1.492,5.726,5.726,0,0,0-2.882-1.566s1.838-.89,3.729,1.566a13.493,13.493,0,0,1,3.02.362,12.743,12.743,0,0,0-3.233-3.761s2.493.288,3.936,3.963l2.663.8s-1.806-3.654-3.276-4.73c0,0,2.5.687,3.931,4.986l2.477,1.156A21.4,21.4,0,0,0,844.529,205s2.179,1.135,3.388,5.172l1.561.969s-1-2.37-1.353-3.026-.2-.8-.2-.8a8.752,8.752,0,0,1,2.221,4.219S853.2,213.7,853.35,213.523Z" transform="translate(-268.856 244.847)"/><path class="l" d="M735.387,276.222s.533-20.295-13.567-17.434a3.471,3.471,0,0,0-3.59,1.923s1.065,0,.767,2.051a9.349,9.349,0,0,0-.032,2.205,4.555,4.555,0,0,0,1.2,2.663h0s2.541,5.614,11.921,7.521c0,0,2.083,1.571,2.6,1.486l-1.6-3.367a6.148,6.148,0,0,1-4.506.4s4.421-.261,4.3-.911c0-.133-.916-1.753-.916-1.753s-4.229,2.157-7.4.74c0,0,5.327.4,7.068-1.353l-1.486-2.36s-4.357,2.493-8.033,1.023c0,0,5.566.224,7.676-1.518l-1.774-2.131s-4.3,2.354-7.345,1.108c0,0,6.456-.389,6.925-1.566a13.821,13.821,0,0,0-2.45-2.131s-3.121,1.6-4.826.735c0,0,4.261-.714,4.288-1.188,0,0-2.914-1.806-4.879-1.939a10.37,10.37,0,0,1,5.14,1.47,5.725,5.725,0,0,0-1.6-2.86s2.029.229,2.307,3.3a13.241,13.241,0,0,1,2.365,1.918,12.458,12.458,0,0,0-.735-4.906s1.96,1.571,1.225,5.449l1.827,2.1s.416-4.059-.25-5.748c0,0,1.747,1.912.671,6.312l1.475,2.3a21.237,21.237,0,0,0,.293-5.508s1.236,2.131.107,6.184l.81,1.651s.41-2.541.463-3.281.256-.788.256-.788a8.747,8.747,0,0,1-.368,4.757S735.153,276.291,735.387,276.222Z" transform="translate(-216.374 218.875)"/><ellipse class="o" cx="14.345" cy="2.424" rx="14.345" ry="2.424" transform="translate(527.978 748.126)"/><ellipse class="o" cx="14.345" cy="2.424" rx="14.345" ry="2.424" transform="translate(475.686 784.923)"/><ellipse class="o" cx="14.345" cy="2.424" rx="14.345" ry="2.424" transform="translate(584.489 782.5)"/><ellipse class="l" cx="21.419" cy="3.622" rx="21.419" ry="3.622" transform="translate(592.351 750.55)"/><path class="l" d="M927.618,758.345a6.185,6.185,0,0,0,2.04-3.079,2.736,2.736,0,0,0-1.422-3.137c-1.31-.5-2.711.4-3.777,1.321s-2.274,1.966-3.665,1.774A5.593,5.593,0,0,0,922.52,750a2.191,2.191,0,0,0-.479-1.065c-.73-.778-2.046-.442-2.919.171-2.77,1.95-3.542,5.71-3.558,9.1a17.105,17.105,0,0,1-.048-3.729,3.825,3.825,0,0,0-1.411-3.313,4.215,4.215,0,0,0-2.131-.533,4.45,4.45,0,0,0-3.484.991c-1.066,1.129-.783,3.031.133,4.261a13.777,13.777,0,0,0,3.606,2.887,8.061,8.061,0,0,1,2.578,2.456,2.489,2.489,0,0,1,.186.437H922.8A21.54,21.54,0,0,0,927.618,758.345Z" transform="translate(-304.968 -10.101)"/></g></svg>