<svg xmlns="http://www.w3.org/2000/svg" width="790.443" height="653.679" viewBox="0 0 790.443 653.679"><defs><style>.a{fill:#94aac6;}.b{fill:#d0cde1;}.c{fill:#7ca0c9;}.d{fill:#3f3d56;}.e{fill:#a0616a;}.f,.h{fill:#2f2e41;}.g{fill:#456e9c;}.h{opacity:0.2;}</style></defs><g transform="translate(0 0.018)"><ellipse class="a" cx="221.749" cy="11.005" rx="221.749" ry="11.005" transform="translate(346.945 631.651)"/><path class="b" d="M485.194,206.278a144.062,144.062,0,0,0-232.56-21.483l-9.271-8.1a156.35,156.35,0,0,1,252.426,23.313Z" transform="translate(-204.778 -123.169)"/><path class="c" d="M491,366.669l-10.218-6.87a144.133,144.133,0,0,0,4.416-153.521l10.6-6.272A156.447,156.447,0,0,1,491,366.669Z" transform="translate(-204.778 -123.169)"/><path class="d" d="M244.646,383.822a156.341,156.341,0,0,1-1.283-207.129l9.271,8.1a144.03,144.03,0,0,0,1.182,190.813Z" transform="translate(-204.778 -123.169)"/><path class="c" d="M361.144,435.9a156.6,156.6,0,0,1-116.5-52.078l9.17-8.215A144.057,144.057,0,0,0,480.778,359.8L491,366.669A156.262,156.262,0,0,1,361.144,435.9Z" transform="translate(-204.778 -123.169)"/><path class="d" d="M431.844,319.583H263.532v-73.8h2.59v71.209H431.844Z"/><circle class="d" cx="14.242" cy="14.242" r="14.242" transform="translate(250.585 243.5)"/><rect class="c" width="77.683" height="2.589" transform="translate(391.132 342.509)"/><rect class="c" width="77.683" height="2.589" transform="translate(391.132 350.278)"/><rect class="c" width="77.683" height="2.589" transform="translate(391.132 358.046)"/><path class="e" d="M756.713,529.835l-8.338,28.676s-.756,14.32,19.048,13.382l-2.4-13.138,9.361-24.02Z" transform="translate(-204.778 -123.169)"/><path class="e" d="M577.917,240.193l8.527,26.646-12.791,23.449v26.647h17.054l23.449-55.425L601.366,233.8Z"/><path class="b" d="M593.905,300.947H570.456l-2.132,30.91-3.2,36.239L603.5,358.5Z"/><path class="e" d="M553.4,455.5l-20.251,62.886-21.318,92.73,20.252,6.4,30.91-87.4,22.383-46.9,5.329,52.227,7.461,86.335,20.252,3.2V533.3L632.276,455.5Z"/><path class="f" d="M824.8,736.947l-23.449-5.329-14.922,20.251s-31.6,15.335-19.186,15.988c20.251,1.066,60.221,0,60.221-2.132S824.8,736.947,824.8,736.947Z" transform="translate(-204.778 -123.169)"/><path class="f" d="M739.528,736.947l-23.449-5.329L701.157,751.87s-31.6,15.335-19.186,15.988c20.251,1.066,60.221,0,60.221-2.132S739.528,736.947,739.528,736.947Z" transform="translate(-204.778 -123.169)"/><path class="f" d="M814.671,473.146l-47.964,7.461-13.2,102.323s10,9.593,35.583,3.2v3.2s38.371-18.12,47.964,0l.657-2.846a153.47,153.47,0,0,0-6.365-90.663C826.163,482.639,820.267,472.347,814.671,473.146Z" transform="translate(-204.778 -123.169)"/><circle class="e" cx="26.647" cy="26.647" r="26.647" transform="translate(556.066 193.827)"/><path class="g" d="M818.935,370.823l-31.976,63.952s-5.329,23.449,8.527,47.964c7.839,13.87,26.683,43.157,41.569,65.976,11.425,17.513-3.716,31.217-3.716,31.217l54.877-7.661-33.042-99.125-4.263-85.269-22.383-6.4Z" transform="translate(-204.778 -123.169)"/><path class="e" d="M837.054,483.8l-24.515,17.054s-9.593,10.659,6.4,22.383l6.4-11.724,22.383-12.791Z" transform="translate(-204.778 -123.169)"/><path class="g" d="M752.851,586.128l38.9-196.652-14.918,8.951a20.586,20.586,0,0,0-9.926,15.973Z" transform="translate(-204.778 -123.169)"/><path class="h" d="M583.779,462.425l1.066,22.384-3.2,6.4Z"/><path class="g" d="M837.054,388.943H850.91a18.19,18.19,0,0,1,9.593,11.724c2.132,8.527,9.593,45.832,9.593,45.832l4.263,21.317-26.646,37.305-15.988-19.186,13.856-20.251-20.251-50.1S822.132,394.272,837.054,388.943Z" transform="translate(-204.778 -123.169)"/><path class="h" d="M625.077,303.614l15.193,38.369-13.856,20.251,10.658-20.251Z"/><ellipse class="e" cx="2.665" cy="4.263" rx="2.665" ry="4.263" transform="translate(591.24 221.54)"/><path class="f" d="M812.546,364.276h0a33.672,33.672,0,0,1-21.62-3.2l-6.453-3.338-1.365-7.347a4.562,4.562,0,0,0-7.236-2.806h0s-24.9-25.592-3.385-36.3,25.662-6.445,25.662-6.445-5.611-39.246,24.386-31.388,21.722,44.647-1.6,45.621C820.937,319.072,840.85,353.983,812.546,364.276Z" transform="translate(-204.778 -123.169)"/><path class="f" d="M801.838,307.415s-18.63-34.995,12.251-37.813a28.793,28.793,0,0,1,13.245,1.644c-4.177-2.318-9.492-3.515-15.975-2.923-30.881,2.818-12.251,37.813-12.251,37.813Z" transform="translate(-204.778 -123.169)"/><path class="a" d="M944.735,761.431s10.2-34.317-28.588-53.855Z" transform="translate(-204.778 -123.169)"/><path class="a" d="M946.006,761.615s4.043-33.869,49.216-35.992Z" transform="translate(-204.778 -123.169)"/></g></svg>