<svg xmlns="http://www.w3.org/2000/svg" width="14.24" height="11.392" viewBox="0 0 14.24 11.392"><defs><style>.a{fill:#707070;}</style></defs><path class="a" d="M4.984,5.7A2.848,2.848,0,1,0,2.136,2.848,2.848,2.848,0,0,0,4.984,5.7Zm1.994.712H6.606a3.873,3.873,0,0,1-3.244,0H2.99A2.991,2.991,0,0,0,0,9.4v.926a1.068,1.068,0,0,0,1.068,1.068H8.9a1.068,1.068,0,0,0,1.068-1.068V9.4A2.991,2.991,0,0,0,6.978,6.408Zm7.187-2.857-.619-.625a.264.264,0,0,0-.374,0L10.841,5.238,9.828,4.219a.264.264,0,0,0-.374,0l-.625.621a.264.264,0,0,0,0,.374l1.818,1.831a.264.264,0,0,0,.374,0l3.144-3.12a.266.266,0,0,0,0-.374Z"/></svg>