<svg xmlns="http://www.w3.org/2000/svg" xmlns:xlink="http://www.w3.org/1999/xlink" width="151.223" height="30.822" viewBox="0 0 151.223 30.822"><defs><style>.a{fill:#fa0;}.b{stroke:#fa0;fill:url(#a);}</style><linearGradient id="a" x1="0.145" y1="0.742" x2="1.051" y2="0.725" gradientUnits="objectBoundingBox"><stop offset="0" stop-color="#fa0"/><stop offset="0.541" stop-color="#ffcb64"/><stop offset="0.545" stop-color="#fff"/><stop offset="1" stop-color="#fff"/></linearGradient></defs><g transform="translate(-1346.1 -391.469)"><path class="a" d="M18,25.905,27.27,31.5,24.81,20.955,33,13.86l-10.785-.915L18,3l-4.215,9.945L3,13.86l8.19,7.1L8.73,31.5Z" transform="translate(1343.1 389.75)"/><path class="a" d="M18,25.905,27.27,31.5,24.81,20.955,33,13.86l-10.785-.915L18,3l-4.215,9.945L3,13.86l8.19,7.1L8.73,31.5Z" transform="translate(1383.1 389.75)"/><path class="a" d="M18,25.905,27.27,31.5,24.81,20.955,33,13.86l-10.785-.915L18,3l-4.215,9.945L3,13.86l8.19,7.1L8.73,31.5Z" transform="translate(1423.1 389.75)"/><path class="b" d="M18,25.905,27.27,31.5,24.81,20.955,33,13.86l-10.785-.915L18,3l-4.215,9.945L3,13.86l8.19,7.1L8.73,31.5Z" transform="translate(1463.1 389.75)"/></g></svg>